<svg width="82" height="82" viewBox="0 0 82 82" fill="none" xmlns="http://www.w3.org/2000/svg">
<path fill-rule="evenodd" clip-rule="evenodd" d="M6.83337 26.8333C6.83337 15.7876 15.7877 6.83334 26.8334 6.83334H55.1667C66.2124 6.83334 75.1667 15.7876 75.1667 26.8333V55.1667C75.1667 66.2124 66.2124 75.1667 55.1667 75.1667H26.8334C15.7877 75.1667 6.83337 66.2124 6.83337 55.1667V26.8333Z" stroke="#141414" stroke-linecap="round" stroke-linejoin="round"/>
<path fill-rule="evenodd" clip-rule="evenodd" d="M54.6667 38.8475C55.5316 44.6797 52.5587 50.409 47.2923 53.0597C42.0258 55.7105 35.6531 54.685 31.4841 50.516C27.315 46.3469 26.2896 39.9742 28.9403 34.7078C31.5911 29.4413 37.3204 26.4685 43.1525 27.3333C49.1077 28.2164 53.7836 32.8923 54.6667 38.8475Z" stroke="#141414" stroke-linecap="round" stroke-linejoin="round"/>
</svg>
